<?xml version="1.0" encoding="UTF-8" standalone="no"?>
<!-- Created with Inkscape (http://www.inkscape.org/) -->

<svg
   xmlns:dc="http://purl.org/dc/elements/1.1/"
   xmlns:cc="http://creativecommons.org/ns#"
   xmlns:rdf="http://www.w3.org/1999/02/22-rdf-syntax-ns#"
   xmlns:svg="http://www.w3.org/2000/svg"
   xmlns="http://www.w3.org/2000/svg"
   xmlns:xlink="http://www.w3.org/1999/xlink"
   xmlns:sodipodi="http://sodipodi.sourceforge.net/DTD/sodipodi-0.dtd"
   xmlns:inkscape="http://www.inkscape.org/namespaces/inkscape"
   sodipodi:docname="logo.svg"
   id="svg1974"
   version="1.1"
   viewBox="0 0 12.7 12.7"
   height="48"
   width="48"
   inkscape:export-filename="C:\Users\faruk\Desktop\Projects\farukbrgl.github.io\logo_new.png"
   inkscape:export-xdpi="300"
   inkscape:export-ydpi="300"
   inkscape:version="0.92.3 (2405546, 2018-03-11)">
  <defs
     id="defs1968">
    <inkscape:path-effect
       only_selected="false"
       apply_with_weight="true"
       apply_no_weight="true"
       helper_size="0"
       steps="2"
       weight="33.333333"
       is_visible="true"
       id="path-effect1204-0"
       effect="bspline" />
    <inkscape:path-effect
       only_selected="false"
       apply_with_weight="true"
       apply_no_weight="true"
       helper_size="0"
       steps="2"
       weight="33.333333"
       is_visible="true"
       id="path-effect1241"
       effect="bspline" />
    <inkscape:path-effect
       only_selected="false"
       apply_with_weight="true"
       apply_no_weight="true"
       helper_size="0"
       steps="2"
       weight="33.333333"
       is_visible="true"
       id="path-effect1241-2"
       effect="bspline" />
    <inkscape:path-effect
       only_selected="false"
       apply_with_weight="true"
       apply_no_weight="true"
       helper_size="0"
       steps="2"
       weight="33.333333"
       is_visible="true"
       id="path-effect1204-0-2"
       effect="bspline" />
    <inkscape:path-effect
       only_selected="false"
       apply_with_weight="true"
       apply_no_weight="true"
       helper_size="0"
       steps="2"
       weight="33.333333"
       is_visible="true"
       id="path-effect1241-21"
       effect="bspline" />
    <inkscape:path-effect
       only_selected="false"
       apply_with_weight="true"
       apply_no_weight="true"
       helper_size="0"
       steps="2"
       weight="33.333333"
       is_visible="true"
       id="path-effect1241-6"
       effect="bspline" />
    <inkscape:path-effect
       only_selected="false"
       apply_with_weight="true"
       apply_no_weight="true"
       helper_size="0"
       steps="2"
       weight="33.333333"
       is_visible="true"
       id="path-effect1241-1"
       effect="bspline" />
    <inkscape:path-effect
       only_selected="false"
       apply_with_weight="true"
       apply_no_weight="true"
       helper_size="0"
       steps="2"
       weight="33.333333"
       is_visible="true"
       id="path-effect1241-1-1"
       effect="bspline" />
    <inkscape:path-effect
       only_selected="false"
       apply_with_weight="true"
       apply_no_weight="true"
       helper_size="0"
       steps="2"
       weight="33.333333"
       is_visible="true"
       id="path-effect1241-1-1-8"
       effect="bspline" />
    <inkscape:path-effect
       only_selected="false"
       apply_with_weight="true"
       apply_no_weight="true"
       helper_size="0"
       steps="2"
       weight="33.333333"
       is_visible="true"
       id="path-effect1204-0-6"
       effect="bspline" />
    <inkscape:path-effect
       only_selected="false"
       apply_with_weight="true"
       apply_no_weight="true"
       helper_size="0"
       steps="2"
       weight="33.333333"
       is_visible="true"
       id="path-effect1204-0-3"
       effect="bspline" />
    <inkscape:path-effect
       only_selected="false"
       apply_with_weight="true"
       apply_no_weight="true"
       helper_size="0"
       steps="2"
       weight="33.333333"
       is_visible="true"
       id="path-effect1204-0-3-7"
       effect="bspline" />
    <path
       style="opacity:0;fill:none;stroke:#000000;stroke-width:0.01;stroke-linecap:butt;stroke-linejoin:miter;stroke-miterlimit:4;stroke-dasharray:none;stroke-opacity:0.04205609"
       d="M 6.769565,6.1639849 C 6.8605901,6.1381478 7.0362089,5.9548326 7.3708309,5.8519998 7.8594007,5.7018574 8.5830636,5.7000582 9.0185754,6.4184559"
       id="path1288-6"
       inkscape:connector-curvature="0"
       sodipodi:nodetypes="csc" />
  </defs>
  <sodipodi:namedview
     inkscape:window-maximized="1"
     inkscape:window-y="-8"
     inkscape:window-x="-8"
     inkscape:window-height="705"
     inkscape:window-width="1366"
     showgrid="false"
     inkscape:current-layer="svg1974"
     inkscape:document-units="mm"
     inkscape:cy="33.753082"
     inkscape:cx="16.264124"
     inkscape:zoom="5.6568543"
     inkscape:pageshadow="2"
     inkscape:pageopacity="0.0"
     borderopacity="1.0"
     bordercolor="#666666"
     pagecolor="#ffffff"
     id="base"
     showguides="false"
     units="px"
     inkscape:snap-bbox="true"
     inkscape:bbox-paths="true"
     inkscape:bbox-nodes="true"
     inkscape:snap-bbox-edge-midpoints="true"
     inkscape:snap-bbox-midpoints="true"
     inkscape:object-paths="true"
     inkscape:snap-intersection-paths="true"
     inkscape:snap-smooth-nodes="true"
     inkscape:snap-midpoints="true"
     inkscape:snap-object-midpoints="true"
     inkscape:snap-center="true"
     inkscape:snap-text-baseline="true"
     inkscape:snap-page="true" />
  <metadata
     id="metadata1971">
    <rdf:RDF>
      <cc:Work
         rdf:about="">
        <dc:format>image/svg+xml</dc:format>
        <dc:type
           rdf:resource="http://purl.org/dc/dcmitype/StillImage" />
        <dc:title />
      </cc:Work>
    </rdf:RDF>
  </metadata>
  <circle
     style="opacity:1;fill:#fbff93;fill-opacity:1;stroke:none;stroke-width:20;stroke-linecap:round;stroke-linejoin:miter;stroke-miterlimit:4;stroke-dasharray:none;stroke-dashoffset:0;stroke-opacity:1;paint-order:fill markers stroke"
     id="path2668"
     cx="-15.792621"
     cy="11.236008"
     r="6.3499999" />
  <g
     inkscape:label="Layer 1"
     inkscape:groupmode="layer"
     id="layer1"
     transform="translate(0,-284.3)" />
  <text
     xml:space="preserve"
     style="font-style:normal;font-variant:normal;font-weight:normal;font-stretch:normal;font-size:35.27777481px;line-height:1.25;font-family:Ubuntu;-inkscape-font-specification:'Ubuntu, Normal';font-variant-ligatures:normal;font-variant-caps:normal;font-variant-numeric:normal;text-align:start;letter-spacing:0px;word-spacing:0px;writing-mode:lr-tb;text-anchor:start;fill:#000000;fill-opacity:1;stroke:none;stroke-width:0.26458332"
     x="-3.2742188"
     y="5.9200521"
     id="text838"><tspan
       sodipodi:role="line"
       id="tspan836"
       x="-3.2742188"
       y="38.816303"
       style="font-style:normal;font-variant:normal;font-weight:normal;font-stretch:normal;font-family:'Century Gothic';-inkscape-font-specification:'Century Gothic';stroke-width:0.26458332" /></text>
  <g
     id="g1318"
     transform="matrix(1.63995,0,0,1.63995,-4.5962342,-4.0636821)">
    <path
       sodipodi:nodetypes="ccscscscssssccccccscssccsscc"
       inkscape:connector-curvature="0"
       id="path906"
       style="font-style:normal;font-variant:normal;font-weight:normal;font-stretch:normal;font-size:medium;line-height:1.25;font-family:Ubuntu;-inkscape-font-specification:'Ubuntu, Normal';font-variant-ligatures:normal;font-variant-caps:normal;font-variant-numeric:normal;text-align:start;letter-spacing:0px;word-spacing:0px;writing-mode:lr-tb;text-anchor:start;fill:#57d4e8;fill-opacity:1;stroke:none;stroke-width:0.07098582"
       d="M 6.769565,5.3273656 C 6.8751422,5.2568459 7.0335077,5.1831209 7.244662,5.1061904 7.4620265,5.0292599 7.7104433,4.9907946 7.9899119,4.9907946 c 0.3477834,0 0.6551988,0.064109 0.9222467,0.1923263 0.2732583,0.1282175 0.5030437,0.307722 0.6893563,0.5385135 0.1863124,0.2307916 0.3260468,0.5064592 0.4192031,0.827003 0.09937,0.3205438 0.14905,0.673142 0.14905,1.0577945 0,0.4038852 -0.059,0.7693051 -0.176997,1.0962597 C 9.8809836,9.0232355 9.7195126,9.2956977 9.5083586,9.5200783 9.2972046,9.7444589 9.0425773,9.9175526 8.7444773,10.039359 c -0.2981,0.121807 -0.6334623,0.18271 -1.0060872,0.18271 -0.4036772,0 -0.7607762,-0.02885 -1.0712968,-0.08655 C 6.3565725,10.077825 6.1019454,10.020127 5.903212,9.9624288 l 0.00815,-7.3697741 0.8582013,0.2791357 z m 0,4.0003866 c 0.086946,0.025642 0.2080489,0.051287 0.3633093,0.07693 0.161471,0.019234 0.3602044,0.028849 0.5962001,0.028849 0.4657813,0 0.8384062,-0.1570666 1.1178749,-0.4711994 C 9.126418,8.641788 9.2661524,8.1898212 9.2661524,7.6064316 c 0,-0.256435 -0.024841,-0.4968429 -0.074525,-0.7212235 C 9.1419439,6.6608277 9.0612087,6.4685015 8.9494213,6.3082296 8.8376339,6.1415468 8.6916889,6.0133293 8.5115868,5.923577 8.337695,5.8274139 8.126541,5.7793323 7.8781243,5.7793323 c -0.2359957,0 -0.4533602,0.041671 -0.6520937,0.1250121 C 7.0272972,5.9876858 6.8751422,6.0742326 6.769565,6.1639849 Z" />
    <g
       transform="matrix(0.26406496,0,0,0.27258844,15.022993,5.5647688)"
       aria-label="f"
       style="font-style:normal;font-variant:normal;font-weight:normal;font-stretch:normal;font-size:35.27777481px;line-height:1.25;font-family:Ubuntu;-inkscape-font-specification:'Ubuntu, Normal';font-variant-ligatures:normal;font-variant-caps:normal;font-variant-numeric:normal;text-align:start;letter-spacing:0px;word-spacing:0px;writing-mode:lr-tb;text-anchor:start;fill:#8b58e8;fill-opacity:1;stroke:none;stroke-width:0.26458332"
       id="text846">
      <path
         d="m -37.688799,-11.324171 c 0.964259,0 1.54083,0.04781 2.222867,0.188917 0.705556,0.141111 0.738054,0.134245 0.960675,0.231952 l -0.0033,2.9181371 c -0.282222,-0.1411111 -0.510861,-0.1875251 -1.028269,-0.3051177 -0.517407,-0.1411111 -1.152407,-0.2116666 -1.904999,-0.2116666 -1.528704,0 -2.598797,0.4233333 -3.210278,1.2699999 -0.611481,0.8231481 -0.917222,1.9402776 -0.917222,3.3513886 v 1.5874999 h 7.055555 v 2.7516664 h -7.055555 V 16.051382 H -44.85019 V -3.9511163 c 0,-2.3518516 0.576204,-4.1627774 1.728611,-5.4327773 1.152407,-1.2935184 2.963333,-1.9402774 5.432777,-1.9402774 z"
         style="fill:#8b58e8;fill-opacity:1;stroke-width:0.26458332"
         id="path903"
         inkscape:connector-curvature="0"
         sodipodi:nodetypes="sccccscsccccccscss" />
    </g>
    <text
       x="3.2738931"
       y="5.5221763"
       id="text911"
       style="font-style:normal;font-variant:normal;font-weight:normal;font-stretch:normal;font-size:0.70555556px;line-height:1.25;font-family:Ubuntu;-inkscape-font-specification:'Ubuntu, Normal';font-variant-ligatures:normal;font-variant-caps:normal;font-variant-numeric:normal;text-align:start;letter-spacing:0px;word-spacing:0px;writing-mode:lr-tb;text-anchor:start;opacity:0;fill:#000000;fill-opacity:0;stroke:none;stroke-width:0.07000434"
       xml:space="preserve"><tspan
         style="font-size:0.70555556px;fill:#000000;fill-opacity:0;stroke-width:0.07000434"
         y="5.5221763"
         x="3.2738931"
         id="tspan909"
         sodipodi:role="line">ömerfar</tspan></text>
    <text
       xml:space="preserve"
       style="font-style:normal;font-variant:normal;font-weight:normal;font-stretch:normal;font-size:0.70564455px;line-height:1.25;font-family:Ubuntu;-inkscape-font-specification:'Ubuntu, Normal';font-variant-ligatures:normal;font-variant-caps:normal;font-variant-numeric:normal;text-align:start;letter-spacing:0px;word-spacing:0px;writing-mode:lr-tb;text-anchor:start;opacity:0;fill:#000000;fill-opacity:0.05607473;stroke:none;stroke-width:0.98617363"
       id="text1170"><textPath
         xlink:href="#path1288"
         id="textPath1290"><tspan
   style="font-size:0.70564455px;fill:#000000;fill-opacity:0.05607473;stroke-width:0.98617363"
   id="tspan1168">ukbirgül</tspan></textPath></text>
    <path
       style="opacity:0;fill:none;stroke:#000000;stroke-width:0.01;stroke-linecap:butt;stroke-linejoin:miter;stroke-miterlimit:4;stroke-dasharray:none;stroke-opacity:0.04205609"
       d="M 6.769565,6.1639849 C 6.8605901,6.1381478 7.0362089,5.9548326 7.3708309,5.8519998 7.8594007,5.7018574 8.5830636,5.7000582 9.0185754,6.4184559"
       id="path1288"
       inkscape:connector-curvature="0"
       sodipodi:nodetypes="csc" />
  </g>
  <path
     d="m 21.993091,5.0338506 c 0.115428,-0.077099 0.288569,-0.1577028 0.519424,-0.2418109 0.237645,-0.084108 0.509239,-0.1261622 0.814782,-0.1261622 0.380231,0 0.716329,0.07009 1.008292,0.2102703 0.298753,0.1401802 0.549978,0.3364325 0.753673,0.5887568 0.203696,0.2523245 0.356467,0.5537119 0.458315,0.9041624 0.108641,0.3504506 0.162956,0.7359462 0.162956,1.1564868 0,0.4415676 -0.0645,0.8410812 -0.19351,1.1985407 -0.122218,0.3504506 -0.298754,0.6483336 -0.529609,0.8936489 -0.230854,0.2453153 -0.509238,0.4345586 -0.835151,0.5677296 -0.325913,0.133172 -0.692564,0.199757 -1.099955,0.199757 -0.44134,0 -0.831757,-0.03154 -1.171249,-0.09463 -0.339492,-0.06308 -0.617876,-0.126158 -0.835151,-0.18924 l 0.0089,-8.0573739 0.938272,0.3051791 z m 0,4.3736226 c 0.09506,0.028034 0.22746,0.056072 0.397206,0.084108 0.176537,0.021028 0.393812,0.031541 0.651826,0.031541 0.509239,0 0.91663,-0.1717209 1.222173,-0.5151623 0.305543,-0.3504505 0.458314,-0.8445858 0.458314,-1.4824057 0,-0.2803604 -0.02716,-0.5431983 -0.08148,-0.7885136 C 24.586813,6.4917247 24.498545,6.2814544 24.376328,6.1062292 24.254111,5.9239949 24.094549,5.7838147 23.897644,5.6856885 23.707528,5.5805534 23.476673,5.5279858 23.205079,5.5279858 c -0.258014,0 -0.495658,0.045559 -0.712934,0.1366757 -0.217275,0.091117 -0.383626,0.1857388 -0.499054,0.283865 z"
     style="font-style:normal;font-variant:normal;font-weight:normal;font-stretch:normal;font-size:medium;line-height:1.25;font-family:Ubuntu;-inkscape-font-specification:'Ubuntu, Normal';font-variant-ligatures:normal;font-variant-caps:normal;font-variant-numeric:normal;text-align:start;letter-spacing:0px;word-spacing:0px;writing-mode:lr-tb;text-anchor:start;fill:#57d4e8;fill-opacity:1;stroke:none;stroke-width:0.07760879"
     id="path906-3"
     inkscape:connector-curvature="0"
     sodipodi:nodetypes="ccscscscssssccccccscssccsscc" />
  <g
     id="text846-9"
     style="font-style:normal;font-variant:normal;font-weight:normal;font-stretch:normal;font-size:35.27777481px;line-height:1.25;font-family:Ubuntu;-inkscape-font-specification:'Ubuntu, Normal';font-variant-ligatures:normal;font-variant-caps:normal;font-variant-numeric:normal;text-align:start;letter-spacing:0px;word-spacing:0px;writing-mode:lr-tb;text-anchor:start;fill:#8b58e8;fill-opacity:1;stroke:none;stroke-width:0.26458332"
     aria-label="f"
     transform="matrix(0.28870222,0,0,0.29802094,33.994257,1.3395822)">
    <path
       sodipodi:nodetypes="sccccscsccccccscss"
       inkscape:connector-curvature="0"
       id="path903-3"
       style="fill:#8b58e8;fill-opacity:1;stroke-width:0.26458332"
       d="m -37.688799,-11.324171 c 0.964259,0 1.54083,0.04781 2.222867,0.188917 0.705556,0.141111 0.738054,0.134245 0.960675,0.231952 l -0.0033,2.9181371 c -0.282222,-0.1411111 -0.510861,-0.1875251 -1.028269,-0.3051177 -0.517407,-0.1411111 -1.152407,-0.2116666 -1.904999,-0.2116666 -1.528704,0 -2.598797,0.4233333 -3.210278,1.2699999 -0.611481,0.8231481 -0.917222,1.9402776 -0.917222,3.3513886 v 1.5874999 h 7.055555 v 2.7516664 h -7.055555 V 16.051382 H -44.85019 V -3.9511163 c 0,-2.3518516 0.576204,-4.1627774 1.728611,-5.4327773 1.152407,-1.2935184 2.963333,-1.9402774 5.432777,-1.9402774 z" />
  </g>
  <text
     xml:space="preserve"
     style="font-style:normal;font-variant:normal;font-weight:normal;font-stretch:normal;font-size:0.77138388px;line-height:1.25;font-family:Ubuntu;-inkscape-font-specification:'Ubuntu, Normal';font-variant-ligatures:normal;font-variant-caps:normal;font-variant-numeric:normal;text-align:start;letter-spacing:0px;word-spacing:0px;writing-mode:lr-tb;text-anchor:start;opacity:0;fill:#000000;fill-opacity:0;stroke:none;stroke-width:0.07653574"
     id="text911-8"
     y="1.2930158"
     x="21.148968"><tspan
       sodipodi:role="line"
       id="tspan909-4"
       x="21.148968"
       y="1.2930158"
       style="font-size:0.77138388px;fill:#000000;fill-opacity:0;stroke-width:0.07653574">ömerfar</tspan></text>
  <text
     id="text1170-2"
     style="font-style:normal;font-variant:normal;font-weight:normal;font-stretch:normal;font-size:0.77148122px;line-height:1.25;font-family:Ubuntu;-inkscape-font-specification:'Ubuntu, Normal';font-variant-ligatures:normal;font-variant-caps:normal;font-variant-numeric:normal;text-align:start;letter-spacing:0px;word-spacing:0px;writing-mode:lr-tb;text-anchor:start;opacity:0;fill:#000000;fill-opacity:0.05607473;stroke:none;stroke-width:0.98617363"
     xml:space="preserve"><textPath
       id="textPath1290-4"
       xlink:href="#path1288-6"><tspan
   id="tspan1168-4"
   style="font-size:0.77148122px;fill:#000000;fill-opacity:0.05607473;stroke-width:0.98617363">ukbirgül</tspan></textPath></text>
  <path
     sodipodi:nodetypes="csc"
     inkscape:connector-curvature="0"
     id="path1337"
     d="m 21.993091,5.9485265 c 0.09952,-0.028248 0.291522,-0.2286663 0.657364,-0.3410934 0.534154,-0.1641506 1.325334,-0.1661177 1.801479,0.6193065"
     style="opacity:0;fill:none;stroke:#000000;stroke-width:0.010933;stroke-linecap:butt;stroke-linejoin:miter;stroke-miterlimit:4;stroke-dasharray:none;stroke-opacity:0.04205609" />
</svg>
